# xmcd
#
# Track frame offsets:
#	150
#	17593
#	28316
#	37777
#	52484
#	69652
#	82983
#	105177
#	118881
#	134634
#	151809
#	165220
#	180750
#	196662
#	209500
#	227683
#	243457
#	259970
#	270125
#	284104
#	300301
#	313674
#	325078
#	337417
#
# Disc length: 4719 seconds
#
# Revision: 1
# Processed by: cddbd v1.5.2PL0 Copyright (c) Steve Scherf et al.
# Submitted via: audiograbber 1.83.01
#
DISCID=4d126d18
DTITLE=Various Artist - Shock Country Sampler
DYEAR=1900
DGENRE=Country
TTITLE0=J.Cash&Rodney Crowell - I walk the Line
TTITLE1=Dwight Yoakam - I'll Pretend
TTITLE2=Jerry lee Lewis - Travellin' Band
TTITLE3=The Gibson Brothers - I got a Woman
TTITLE4=Old Crow Medicine Show - Down home Girl
TTITLE5=Solomon Burke&Patty Loveless - You're the kind of Trouble
TTITLE6=Dolly Parton - Travellin' thru
TTITLE7=Rhonda Vincent&Dolly Parton - Heartbreaker's Alibi
TTITLE8=Mindy Smith - Out Loud
TTITLE9=Alison Krauss - If I didn't know any Better
TTITLE10=Chris Thile - You're an angel and I'm gonna cry
TTITLE11=Linda Ronstadt&Ann Savoy - Walk away Renee
TTITLE12=Kieran Kane&Kevin Whelch - I Can't Wait
TTITLE13=Kieran Kane&Kevin Whelch - Clean Getaway
TTITLE14=Emmylou Harris&Sam Bush - The River's Gonna Run
TTITLE15=Alison Moorer - Fairweather
TTITLE16=Roseanne Cash - Lovin' him was easier
TTITLE17=Kris Kristofferson - Pilgrim's Progress
TTITLE18=Old Crow Medicine Show - I hear them All
TTITLE19=Guy Clark - Analog Girl
TTITLE20=Newfound Road - Before the next teardrop Falls
TTITLE21=Bradley Walker - Life or Love
TTITLE22=Jerry Lee Lewis&Rod Stewart - What's made milwaukee Famous
TTITLE23=Dwight Yoakam - Blame the Vain
EXTD=
EXTT0=
EXTT1=
EXTT2=
EXTT3=
EXTT4=
EXTT5=
EXTT6=
EXTT7=
EXTT8=
EXTT9=
EXTT10=
EXTT11=
EXTT12=
EXTT13=
EXTT14=
EXTT15=
EXTT16=
EXTT17=
EXTT18=
EXTT19=
EXTT20=
EXTT21=
EXTT22=
EXTT23=
PLAYORDER=
